<!-- https://fonts.google.com/icons?selected=Material+Symbols+Outlined:note_add:FILL@0;wght@300;GRAD@0;opsz@48&icon.size=48&icon.color=%2300000 -->
<svg xmlns="http://www.w3.org/2000/svg" height="48px" viewBox="0 -960 960 960" width="48px" fill="#00000"><path d="M457.31-245.54h45.38v-126.69H630v-45.38H502.69v-127.31h-45.38v127.31H330v45.38h127.31v126.69ZM237.69-100q-23.53 0-40.61-17.08T180-157.69v-644.62q0-23.53 17.08-40.61T237.69-860h347.54L780-665.23v507.54q0 23.53-17.08 40.61T722.31-100H237.69Zm324.85-544.77v-169.84H237.69q-4.61 0-8.46 3.84-3.84 3.85-3.84 8.46v644.62q0 4.61 3.84 8.46 3.85 3.84 8.46 3.84h484.62q4.61 0 8.46-3.84 3.84-3.85 3.84-8.46v-487.08H562.54ZM225.39-814.61v169.84-169.84 669.22-669.22Z"/></svg>
