<svg xmlns="http://www.w3.org/2000/svg" height="48" viewBox="0 -960 960 960" width="48"><path d="M116-156v-35h347v-460q-28-4-50.5-25T385-729H240l111 295q-3 38.333-36.757 65.667Q280.486-341 234-341q-46.9 0-80.95-27.333Q119-395.667 116-434l113-295h-73v-35h229q6-33 31.921-56.5T480-844q37.158 0 63.079 23.5t33.319 56.5H804v35h-71l111 295q-3 38.333-36.757 65.667Q773.486-341 727-341q-46.9 0-80.95-27.333Q612-395.667 609-434l113-295H576.331Q570-697 547.5-676T498-651v460h346v35H116Zm539-289h144l-72-194-72 194Zm-493 0h144l-72-194-72 194Zm317.5-239q26.975 0 45.237-18.263Q543-720.525 543-746.5q0-26.975-18.275-44.737Q506.45-809 480-809q-26.475 0-44.237 17.988Q418-773.025 418-747q0 26.475 17.763 44.737Q453.525-684 479.5-684Z"/></svg>