<svg xmlns="http://www.w3.org/2000/svg" height="48" viewBox="0 -960 960 960" width="48"><path d="M785-133 483-435 351-303q9 17 13.5 32.5T369-235q0 56.025-37.482 93.512Q294.035-104 238.018-104 182-104 144.5-141.482q-37.5-37.483-37.5-93.5Q107-291 144.488-328.5 181.975-366 238-366q19 0 35.5 4.5T306-347l132-132-133-133q-16 9-32 13t-35 4q-56.025 0-93.512-37.482Q107-669.965 107-725.982 107-782 144.482-819.5q37.483-37.5 93.5-37.5Q294-857 331.5-819.513 369-782.025 369-726q0 20-3.5 36T352-658l501 502v23h-68ZM586-535l-46-46 245-246h68v23L586-535Zm-348.168-95q39.293 0 67.73-28.269Q334-686.539 334-725.832q0-39.293-28.269-67.73Q277.461-822 238.168-822q-39.293 0-67.73 28.269Q142-765.461 142-726.168q0 39.293 28.269 67.73Q198.539-630 237.832-630Zm246.025 151q-.657 0 .243-.257t.9-.6q0 .657-.757-.243t-.1-.9q-.343 0-.743.757-.4.757-.4.1 0 .343.257.743.257.4.6.4ZM237.832-139q39.293 0 67.73-28.269Q334-195.539 334-234.832q0-39.293-28.269-67.73Q277.461-331 238.168-331q-39.293 0-67.73 28.269Q142-274.461 142-235.168q0 39.293 28.269 67.73Q198.539-139 237.832-139Z"/></svg>