<svg xmlns="http://www.w3.org/2000/svg" height="48" viewBox="0 -960 960 960" width="48"><path d="M485-156q-128.758 0-221.879-84.5Q170-325 162-452h36q10 111 91.498 186T484-191q120.164 0 204.582-85.127Q773-361.254 773-481.5q0-120.5-84.082-204T485-769q-62.651 0-119.325 26Q309-717 268-671h99v35H208v-160h35v101q45-52 108.635-80.5Q415.271-804 485-804q66.921 0 125.471 25.6 58.551 25.6 101.823 69.525 43.273 43.924 69.489 103.102Q808-546.594 808-480.797q0 66.797-26.217 126.272-26.216 59.476-69.489 103.4Q669.022-207.2 610.471-181.6 551.921-156 485-156Zm126-166L458-472.565V-689h35v201l143 141-25 25Z"/></svg>