<svg xmlns="http://www.w3.org/2000/svg" height="48" viewBox="0 -960 960 960" width="48"><path d="M804-666v443q0 27.5-19.75 47.25T737-156H223q-27.5 0-47.25-19.75T156-223v-514q0-27.5 19.75-47.25T223-804h443l138 138Zm-35 15.221L650.779-769H223q-14 0-23 9t-9 23v514q0 14 9 23t23 9h514q14 0 23-9t9-23v-427.779ZM479.824-311q28.759 0 49.468-20.532Q550-352.064 550-380.824q0-28.759-20.532-49.468Q508.936-451 480.176-451q-28.759 0-49.468 20.532Q410-409.936 410-381.176q0 28.759 20.532 49.468Q451.064-311 479.824-311ZM271-572h293v-117H271v117Zm-80-78.779V-191v-578 118.221Z"/></svg>