<svg xmlns="http://www.w3.org/2000/svg" height="48" viewBox="0 -960 960 960" width="48"><path d="M223-156q-27.75 0-47.375-19.625T156-223v-514q0-27.75 19.625-47.375T223-804h443l138 138.032V-474q-8-2-17.5-3.5T769-479v-172L651-769H223q-14 0-23 9t-9 23v514q0 14 9 23t23 9h218v35H223Zm-32-613v578-578ZM535-76v-87l213-212q6-6.059 12.222-8.029Q766.444-385 772.667-385q6.333 0 12.914 2 6.58 2 11.419 7l37 39q5 6 7.5 11.75t2.5 12.5q0 6.75-2.971 12.828-2.97 6.078-6.939 11.922L622-76h-87Zm275-237-37-38 37 38ZM570-111h38l144-144-19-19-18-20-145 145v38Zm163-163-18-20 37 39-19-19ZM271-572h293v-117H271v117Zm209 261q13.5 0 25.5-3t24.466-9l7.034-7.068Q544-341 547-354q3-13 3-26.885 0-28.881-20.532-49.498Q508.936-451 480.176-451q-28.759 0-49.468 20.532Q410-409.936 410-381.176q0 28.759 20.583 49.468Q451.167-311 480-311Z"/></svg>