<svg xmlns="http://www.w3.org/2000/svg" height="48" viewBox="0 -960 960 960" width="48"><path d="M787-151 532-406q-30.605 27.077-72.051 40.538Q418.503-352 380.438-352q-98.25 0-164.844-66.337Q149-484.675 149-582.337 149-680 215.337-746.5 281.675-813 378.61-813t164.662 66.385Q611-680.231 611-582.712 611-541 596.5-501T556-432l256 255-25 26ZM379.5-387q83.583 0 140.042-55.792Q576-498.583 576-582.5t-56.37-139.708Q463.26-778 379.588-778q-83.671 0-139.63 55.792Q184-666.417 184-582.5t55.958 139.708Q295.917-387 379.5-387Z"/></svg>