<svg xmlns="http://www.w3.org/2000/svg" height="48" viewBox="0 -960 960 960" width="48"><path d="M307-307v-348h348v348H307Zm35-35h278v-278H342v278ZM203-203v47q-19.25 0-33.125-13.875T156-203h47Zm-47-104v-47h47v47h-47Zm0-150v-47h47v47h-47Zm0-151v-47h47v47h-47Zm47-149h-47q0-19.25 13.875-33.125T203-804v47Zm104 601v-47h47v47h-47Zm0-601v-47h47v47h-47Zm150 601v-47h47v47h-47Zm0-601v-47h47v47h-47Zm151 601v-47h47v47h-47Zm0-601v-47h47v47h-47Zm149 601v-47h47q0 20-13.875 33.5T757-156Zm0-151v-47h47v47h-47Zm0-150v-47h47v47h-47Zm0-151v-47h47v47h-47Zm0-149v-47q19.25 0 33.125 13.875T804-757h-47Z"/></svg>