<svg xmlns="http://www.w3.org/2000/svg" height="48" viewBox="0 -960 960 960" width="48"><path d="M203-203v47q-19.25 0-33.125-13.875T156-203h47Zm-47-104v-47h47v47h-47Zm0-150v-47h47v47h-47Zm0-151v-47h47v47h-47Zm47-149h-47q0-19.25 13.875-33.125T203-804v47Zm104 601v-47h47v47h-47Zm0-601v-47h47v47h-47Zm150 601v-47h47v47h-47Zm0-601v-47h47v47h-47Zm151 601v-47h47v47h-47Zm0-601v-47h47v47h-47Zm149 554h47q0 19.25-13.875 33.125T757-156v-47Zm0-104v-47h47v47h-47Zm0-150v-47h47v47h-47Zm0-151v-47h47v47h-47Zm0-149v-47q19.25 0 33.125 13.875T804-757h-47Z"/></svg>